o Box
v 0.8245746969049542 0.6117286017856298 2.1104080108547123
v 0.8245746969049542 0.6117286017856298 1.1104080108547123
v 0.8245746969049542 -0.3882713982143702 2.1104080108547123
v 0.8245746969049542 -0.3882713982143702 1.1104080108547123
v -0.17542530309504578 0.6117286017856298 1.1104080108547123
v -0.17542530309504578 0.6117286017856298 2.1104080108547123
v -0.17542530309504578 -0.3882713982143702 1.1104080108547123
v -0.17542530309504578 -0.3882713982143702 2.1104080108547123
v -0.17542530309504578 0.6117286017856298 1.1104080108547123
v 0.8245746969049542 0.6117286017856298 1.1104080108547123
v -0.17542530309504578 0.6117286017856298 2.1104080108547123
v 0.8245746969049542 0.6117286017856298 2.1104080108547123
v -0.17542530309504578 -0.3882713982143702 2.1104080108547123
v 0.8245746969049542 -0.3882713982143702 2.1104080108547123
v -0.17542530309504578 -0.3882713982143702 1.1104080108547123
v 0.8245746969049542 -0.3882713982143702 1.1104080108547123
v -0.17542530309504578 0.6117286017856298 2.1104080108547123
v 0.8245746969049542 0.6117286017856298 2.1104080108547123
v -0.17542530309504578 -0.3882713982143702 2.1104080108547123
v 0.8245746969049542 -0.3882713982143702 2.1104080108547123
v 0.8245746969049542 0.6117286017856298 1.1104080108547123
v -0.17542530309504578 0.6117286017856298 1.1104080108547123
v 0.8245746969049542 -0.3882713982143702 1.1104080108547123
v -0.17542530309504578 -0.3882713982143702 1.1104080108547123
vt 0 1
vt 1 1
vt 0 0
vt 1 0
vt 0 1
vt 1 1
vt 0 0
vt 1 0
vt 0 1
vt 1 1
vt 0 0
vt 1 0
vt 0 1
vt 1 1
vt 0 0
vt 1 0
vt 0 1
vt 1 1
vt 0 0
vt 1 0
vt 0 1
vt 1 1
vt 0 0
vt 1 0
vn 1 0 0
vn 1 0 0
vn 1 0 0
vn 1 0 0
vn -1 0 0
vn -1 0 0
vn -1 0 0
vn -1 0 0
vn 0 1 0
vn 0 1 0
vn 0 1 0
vn 0 1 0
vn 0 -1 0
vn 0 -1 0
vn 0 -1 0
vn 0 -1 0
vn 0 0 1
vn 0 0 1
vn 0 0 1
vn 0 0 1
vn 0 0 -1
vn 0 0 -1
vn 0 0 -1
vn 0 0 -1
f 1/1/1 3/3/3 2/2/2
f 3/3/3 4/4/4 2/2/2
