o Lathe
v 0.6556599157696457 0.6894555067743968 -1.9496339763007173
v 0.6556599157696457 0.18945550677439685 -1.4496339763007173
v 0.6556599157696457 -0.3105444932256032 -1.9496339763007173
v 0.6556599157696457 0.6894555067743968 -1.9496339763007173
v 0.9056599157696457 0.18945550677439685 -1.5166212821803102
v 0.6556599157696457 -0.3105444932256032 -1.9496339763007173
v 0.6556599157696457 0.6894555067743968 -1.9496339763007173
v 1.0886726098900528 0.18945550677439685 -1.6996339763007173
v 0.6556599157696457 -0.3105444932256032 -1.9496339763007173
v 0.6556599157696457 0.6894555067743968 -1.9496339763007173
v 1.1556599157696457 0.18945550677439685 -1.9496339763007173
v 0.6556599157696457 -0.3105444932256032 -1.9496339763007173
v 0.6556599157696457 0.6894555067743968 -1.9496339763007173
v 1.0886726098900528 0.18945550677439685 -2.199633976300717
v 0.6556599157696457 -0.3105444932256032 -1.9496339763007173
v 0.6556599157696457 0.6894555067743968 -1.9496339763007173
v 0.9056599157696457 0.18945550677439685 -2.382646670421124
v 0.6556599157696457 -0.3105444932256032 -1.9496339763007173
v 0.6556599157696457 0.6894555067743968 -1.9496339763007173
v 0.6556599157696458 0.18945550677439685 -2.449633976300717
v 0.6556599157696457 -0.3105444932256032 -1.9496339763007173
v 0.6556599157696457 0.6894555067743968 -1.9496339763007173
v 0.40565991576964566 0.18945550677439685 -2.382646670421124
v 0.6556599157696457 -0.3105444932256032 -1.9496339763007173
v 0.6556599157696457 0.6894555067743968 -1.9496339763007173
v 0.22264722164923856 0.18945550677439685 -2.199633976300717
v 0.6556599157696457 -0.3105444932256032 -1.9496339763007173
v 0.6556599157696457 0.6894555067743968 -1.9496339763007173
v 0.15565991576964566 0.18945550677439685 -1.9496339763007173
v 0.6556599157696457 -0.3105444932256032 -1.9496339763007173
v 0.6556599157696457 0.6894555067743968 -1.9496339763007173
v 0.22264722164923856 0.18945550677439685 -1.6996339763007173
v 0.6556599157696457 -0.3105444932256032 -1.9496339763007173
v 0.6556599157696457 0.6894555067743968 -1.9496339763007173
v 0.40565991576964566 0.18945550677439685 -1.5166212821803102
v 0.6556599157696457 -0.3105444932256032 -1.9496339763007173
v 0.6556599157696457 0.6894555067743968 -1.9496339763007173
v 0.6556599157696456 0.18945550677439685 -1.4496339763007173
v 0.6556599157696457 -0.3105444932256032 -1.9496339763007173
vt 0 0
vt 0 0.5
vt 0 1
vt 0.0833333358168602 0
vt 0.0833333358168602 0.5
vt 0.0833333358168602 1
vt 0.1666666716337204 0
vt 0.1666666716337204 0.5
vt 0.1666666716337204 1
vt 0.25 0
vt 0.25 0.5
vt 0.25 1
vt 0.3333333432674408 0
vt 0.3333333432674408 0.5
vt 0.3333333432674408 1
vt 0.4166666567325592 0
vt 0.4166666567325592 0.5
vt 0.4166666567325592 1
vt 0.5 0
vt 0.5 0.5
vt 0.5 1
vt 0.5833333134651184 0
vt 0.5833333134651184 0.5
vt 0.5833333134651184 1
vt 0.6666666865348816 0
vt 0.6666666865348816 0.5
vt 0.6666666865348816 1
vt 0.75 0
vt 0.75 0.5
vt 0.75 1
vt 0.8333333134651184 0
vt 0.8333333134651184 0.5
vt 0.8333333134651184 1
vt 0.9166666865348816 0
vt 0.9166666865348816 0.5
vt 0.9166666865348816 1
vt 1 0
vt 1 0.5
vt 1 1
vn 0.18615680266498566 -0.6947465886283825 -0.6947465886283825
vn 0 -8.326673346433164e-17 -1
vn -0.18615680266498566 0.6947465886283825 -0.6947465886283825
vn -0.18615680266498566 -0.6947465886283825 -0.6947465886283825
vn -0.4999999843788446 1.4399877254896723e-9 -0.8660254128033169
vn -0.50858979532568 0.6947466014174996 -0.50858979532568
vn -0.50858979532568 -0.6947466014174996 -0.50858979532568
vn -0.8660253998985324 -2.775557598925154e-17 -0.5000000067305869
vn -0.6947465886283825 0.6947465886283825 -0.18615680266498566
vn -0.6947465886283825 -0.6947465886283825 -0.18615680266498566
vn -1 5.551115123125783e-17 0
vn -0.6947465886283825 0.6947465886283825 0.18615680266498566
vn -0.6947465886283825 -0.6947465886283825 0.18615680266498566
vn -0.8660254128033169 1.4399877254896723e-9 0.4999999843788446
vn -0.50858979532568 0.6947466014174996 0.50858979532568
vn -0.50858979532568 -0.6947466014174996 0.50858979532568
vn -0.5000000067305869 -5.551115197850308e-17 0.8660253998985324
vn -0.18615680266498566 0.6947465886283825 0.6947465886283825
vn -0.18615680266498566 -0.6947465886283825 0.6947465886283825
vn 0 5.551115123125783e-17 1
vn 0.18615680266498566 0.6947465886283825 0.6947465886283825
vn 0.18615680266498566 -0.6947465886283825 0.6947465886283825
vn 0.4999999843788446 1.4399877254896723e-9 0.8660254128033169
vn 0.50858979532568 0.6947466014174996 0.50858979532568
vn 0.50858979532568 -0.6947466014174996 0.50858979532568
vn 0.8660253998985324 -8.326672796775462e-17 0.5000000067305869
vn 0.6947465886283825 0.6947465886283825 0.18615680266498566
vn 0.6947465886283825 -0.6947465886283825 0.18615680266498566
vn 1 1.1102230246251565e-16 0
vn 0.6947465886283825 0.6947465886283825 -0.18615680266498566
vn 0.6947465886283825 -0.6947465886283825 -0.18615680266498566
vn 0.8660254128033169 1.4399877254896723e-9 -0.4999999843788446
vn 0.50858979532568 0.6947466014174996 -0.50858979532568
vn 0.50858979532568 -0.6947466014174996 -0.50858979532568
vn 0.5000000067305869 -8.326672796775462e-17 -0.8660253998985324
vn 0.18615680266498566 0.6947465886283825 -0.6947465886283825
vn 0.18615680266498566 -0.6947465886283825 -0.6947465886283825
vn 0 -8.326673346433164e-17 -1
vn -0.18615680266498566 0.6947465886283825 -0.6947465886283825
f 1/1/1 4/4/4 2/2/2
f 4/4/4 5/5/5 2/2/2
f 2/2/2 5/5/5 3/3/3
f 5/5/5 6/6/6 3/3/3
f 4/4/4 7/7/7 5/5/5
f 7/7/7 8/8/8 5/5/5
f 5/5/5 8/8/8 6/6/6
f 8/8/8 9/9/9 6/6/6
f 7/7/7 10/10/10 8/8/8
f 10/10/10 11/11/11 8/8/8
f 8/8/8 11/11/11 9/9/9
f 11/11/11 12/12/12 9/9/9
f 10/10/10 13/13/13 11/11/11
f 13/13/13 14/14/14 11/11/11
f 11/11/11 14/14/14 12/12/12
f 14/14/14 15/15/15 12/12/12
f 13/13/13 16/16/16 14/14/14
f 16/16/16 17/17/17 14/14/14
f 14/14/14 17/17/17 15/15/15
f 17/17/17 18/18/18 15/15/15
f 16/16/16 19/19/19 17/17/17
f 19/19/19 20/20/20 17/17/17
f 17/17/17 20/20/20 18/18/18
f 20/20/20 21/21/21 18/18/18
f 19/19/19 22/22/22 20/20/20
f 22/22/22 23/23/23 20/20/20
f 20/20/20 23/23/23 21/21/21
f 23/23/23 24/24/24 21/21/21
f 22/22/22 25/25/25 23/23/23
f 25/25/25 26/26/26 23/23/23
f 23/23/23 26/26/26 24/24/24
f 26/26/26 27/27/27 24/24/24
f 25/25/25 28/28/28 26/26/26
f 28/28/28 29/29/29 26/26/26
f 26/26/26 29/29/29 27/27/27
f 29/29/29 30/30/30 27/27/27
f 28/28/28 31/31/31 29/29/29
f 31/31/31 32/32/32 29/29/29
f 29/29/29 32/32/32 30/30/30
f 32/32/32 33/33/33 30/30/30
f 31/31/31 34/34/34 32/32/32
f 34/34/34 35/35/35 32/32/32
f 32/32/32 35/35/35 33/33/33
f 35/35/35 36/36/36 33/33/33
f 34/34/34 37/37/37 35/35/35
f 37/37/37 38/38/38 35/35/35
f 35/35/35 38/38/38 36/36/36
f 38/38/38 39/39/39 36/36/36
